<?xml version="1.0" standalone="no"?>
<!DOCTYPE svg PUBLIC "-//W3C//DTD SVG 20010904//EN"
        "http://www.w3.org/TR/2001/REC-SVG-20010904/DTD/svg10.dtd">
<svg version="1.0" xmlns="http://www.w3.org/2000/svg"
     width="144.000000pt" height="144.000000pt" viewBox="0 0 144.000000 144.000000"
     preserveAspectRatio="xMidYMid meet">
    <metadata>
        Created by potrace 1.11, written by Peter Selinger 2001-2013
    </metadata>
    <g transform="translate(0.000000,144.000000) scale(0.100000,-0.100000)"
       fill="#000000" stroke="none">
        <path d="M300 1303 c-46 -19 -45 -3 -45 -583 0 -526 1 -547 19 -566 19 -18 38
-19 451 -19 413 0 432 1 451 19 18 19 19 40 19 566 0 526 -1 547 -19 566 -19
18 -39 19 -440 21 -232 1 -428 -1 -436 -4z m795 -175 c3 -13 4 -95 3 -183 l-3
-160 -32 -3 c-19 -2 -33 1 -33 7 0 7 -35 11 -95 11 -60 0 -95 -4 -95 -11 0 -6
-14 -9 -32 -7 l-33 3 -3 160 c-1 88 0 170 3 183 5 22 8 22 160 22 152 0 155 0
160 -22z m-165 -518 l0 -30 75 0 75 0 0 -43 c0 -32 -9 -59 -35 -101 -40 -67
-41 -69 -19 -86 20 -17 14 -64 -8 -68 -19 -4 -158 115 -158 134 0 6 7 18 16
25 14 11 21 10 46 -4 17 -10 32 -16 33 -15 25 34 55 86 55 95 0 9 -17 13 -55
13 -53 0 -55 -1 -74 -39 -31 -59 -70 -101 -96 -101 -38 0 -38 28 0 80 19 26
45 69 57 96 33 70 36 74 64 74 20 0 24 -5 24 -30z"/>
        <path d="M840 1050 l0 -40 95 0 95 0 0 40 0 40 -95 0 -95 0 0 -40z"/>
        <path d="M840 900 l0 -50 95 0 95 0 0 50 0 50 -95 0 -95 0 0 -50z"/>
    </g>
</svg>
