<?xml version="1.0" standalone="no"?>
<!DOCTYPE svg PUBLIC "-//W3C//DTD SVG 20010904//EN"
        "http://www.w3.org/TR/2001/REC-SVG-20010904/DTD/svg10.dtd">
<svg version="1.0" xmlns="http://www.w3.org/2000/svg"
     width="144.000000pt" height="144.000000pt" viewBox="0 0 144.000000 144.000000"
     preserveAspectRatio="xMidYMid meet">
    <metadata>
        Created by potrace 1.11, written by Peter Selinger 2001-2013
    </metadata>
    <g transform="translate(0.000000,144.000000) scale(0.100000,-0.100000)"
       fill="#000000" stroke="none">
        <path d="M720 960 c0 -187 -4 -340 -8 -340 -5 0 -17 7 -28 15 -12 9 -43 14
-85 15 -74 0 -140 -26 -196 -78 -41 -38 -79 -154 -68 -210 25 -139 123 -222
260 -222 78 0 137 24 186 76 66 72 64 54 67 462 l3 372 130 0 129 0 0 125 0
125 -195 0 -195 0 0 -340z"/>
    </g>
</svg>
